<svg width="80" height="80" viewBox="0 0 80 80" fill="none" xmlns="http://www.w3.org/2000/svg">
<path d="M21.775 2.61C22.4089 2.41839 23.0929 2.4861 23.6769 2.79825C24.2609 3.11041 24.6972 3.64151 24.89 4.275L26.345 9.055C30.4071 6.40778 35.1514 4.99892 40 5C45.035 5 49.73 6.49 53.655 9.055L55.105 4.275C55.1984 3.95869 55.3534 3.66398 55.5612 3.40786C55.769 3.15174 56.0254 2.93926 56.3157 2.78267C56.6059 2.62608 56.9243 2.52847 57.2525 2.49546C57.5806 2.46245 57.9121 2.4947 58.2277 2.59035C58.5433 2.686 58.8369 2.84315 59.0915 3.05276C59.3462 3.26237 59.5568 3.52029 59.7113 3.81166C59.8659 4.10303 59.9612 4.4221 59.9919 4.75048C60.0225 5.07885 59.9879 5.41005 59.89 5.725L57.84 12.485C62.4293 17.1597 65.0003 23.4491 65 30H67.5C68.163 30 68.7989 29.7366 69.2678 29.2678C69.7366 28.7989 70 28.163 70 27.5V25C70 24.337 70.2634 23.7011 70.7322 23.2322C71.2011 22.7634 71.837 22.5 72.5 22.5C73.163 22.5 73.7989 22.7634 74.2678 23.2322C74.7366 23.7011 75 24.337 75 25V27.5C75 29.4891 74.2098 31.3968 72.8033 32.8033C71.3968 34.2098 69.4891 35 67.5 35H65V40H72.5C73.163 40 73.7989 40.2634 74.2678 40.7322C74.7366 41.2011 75 41.837 75 42.5C75 43.163 74.7366 43.7989 74.2678 44.2678C73.7989 44.7366 73.163 45 72.5 45H65V50H67.5C69.4891 50 71.3968 50.7902 72.8033 52.1967C74.2098 53.6032 75 55.5109 75 57.5V60C75 60.663 74.7366 61.2989 74.2678 61.7678C73.7989 62.2366 73.163 62.5 72.5 62.5C71.837 62.5 71.2011 62.2366 70.7322 61.7678C70.2634 61.2989 70 60.663 70 60V57.5C70 56.837 69.7366 56.2011 69.2678 55.7322C68.7989 55.2634 68.163 55 67.5 55H65C65 61.6304 62.3661 67.9893 57.6777 72.6777C52.9893 77.3661 46.6304 80 40 80C33.3696 80 27.0107 77.3661 22.3223 72.6777C17.6339 67.9893 15 61.6304 15 55H12.5C11.837 55 11.2011 55.2634 10.7322 55.7322C10.2634 56.2011 10 56.837 10 57.5V60C10 60.663 9.73661 61.2989 9.26777 61.7678C8.79893 62.2366 8.16304 62.5 7.5 62.5C6.83696 62.5 6.20107 62.2366 5.73223 61.7678C5.26339 61.2989 5 60.663 5 60V57.5C5 55.5109 5.79018 53.6032 7.1967 52.1967C8.60322 50.7902 10.5109 50 12.5 50H15V45H7.5C6.83696 45 6.20107 44.7366 5.73223 44.2678C5.26339 43.7989 5 43.163 5 42.5C5 41.837 5.26339 41.2011 5.73223 40.7322C6.20107 40.2634 6.83696 40 7.5 40H15V35H12.5C10.5109 35 8.60322 34.2098 7.1967 32.8033C5.79018 31.3968 5 29.4891 5 27.5V25C5 24.337 5.26339 23.7011 5.73223 23.2322C6.20107 22.7634 6.83696 22.5 7.5 22.5C8.16304 22.5 8.79893 22.7634 9.26777 23.2322C9.73661 23.7011 10 24.337 10 25V27.5C10 28.163 10.2634 28.7989 10.7322 29.2678C11.2011 29.7366 11.837 30 12.5 30H15C15 23.18 17.735 16.995 22.16 12.485L20.11 5.725C19.9184 5.09113 19.9861 4.40714 20.2983 3.82314C20.6104 3.23914 21.1415 2.80284 21.775 2.61ZM20 35V55C19.9983 59.8725 21.7755 64.5781 24.9977 68.233C28.22 71.888 32.6657 74.2409 37.5 74.85V35H20ZM42.5 35V74.85C47.3343 74.2409 51.78 71.888 55.0023 68.233C58.2245 64.5781 60.0017 59.8725 60 55V35H42.5ZM60 30C60 27.1853 59.4059 24.4023 58.2565 21.833C57.1071 19.2637 55.4284 16.966 53.33 15.09C49.6686 11.8039 44.9198 9.99058 40 10C35.0785 9.98934 30.3277 11.8028 26.665 15.09C24.5676 16.9664 22.8897 19.2644 21.7412 21.8337C20.5927 24.403 19.9994 27.1857 20 30H60Z" fill="white"/>
</svg>
