<svg width="470" height="30" viewBox="0 0 470 30" fill="none" xmlns="http://www.w3.org/2000/svg">
<path d="M2 13C0.895431 13 2.38419e-07 13.8954 2.38419e-07 15C2.38419e-07 16.1046 0.895431 17 2 17V13ZM469.414 16.4142C470.195 15.6332 470.195 14.3668 469.414 13.5858L456.686 0.857866C455.905 0.0768176 454.639 0.0768176 453.858 0.857866C453.077 1.63891 453.077 2.90524 453.858 3.68629L465.172 15L453.858 26.3137C453.077 27.0948 453.077 28.3611 453.858 29.1421C454.639 29.9232 455.905 29.9232 456.686 29.1421L469.414 16.4142ZM2 17H468V13H2V17Z" fill="white"/>
</svg>
