<svg width="100" height="100" viewBox="0 0 100 100" fill="none" xmlns="http://www.w3.org/2000/svg">
<g clip-path="url(#clip0_638_47)">
<path d="M50.0001 -0.0146056C39.9486 -0.686304 29.4517 4.61075 24.3349 13.2372C24.1938 13.4602 24.0968 13.7032 23.9636 13.93C16.4763 14.4544 8.91674 18.4783 4.54834 24.9854C-1.09126 32.9552 -1.53928 44.2503 3.74388 52.7861C3.87938 53.0198 4.06485 53.2205 4.20799 53.4494C0.93809 59.8907 0.821112 68.1397 4.54834 75.0001C8.96814 83.6341 19.0091 89.6544 29.4091 89.5638C29.6838 89.5688 29.9549 89.523 30.229 89.5196C34.4494 95.4344 41.8911 99.6635 49.9846 100.015C60.0361 100.687 70.5485 95.3895 75.6653 86.7631C75.8095 86.5353 75.9005 86.2873 76.0366 86.0556C83.5237 85.5309 91.0835 81.5071 95.4518 75.0001C101.083 67.0379 101.539 55.7353 96.2563 47.1994C96.1224 46.9688 95.9489 46.7621 95.8076 46.5361C99.0686 40.0973 99.1756 31.8542 95.4518 25.0001C91.032 16.3662 80.991 10.3459 70.591 10.4365C70.3112 10.4314 70.0349 10.477 69.7556 10.4807C65.5352 4.56589 58.0935 0.336752 50.0001 -0.0146056ZM50.0001 9.44884C53.8806 9.10178 57.9078 9.9773 61.6492 11.7926C54.7126 13.989 48.7068 18.7186 45.5292 24.897C42.0697 31.1172 41.9039 38.5513 44.3844 44.6788C44.0726 44.9798 43.788 45.3052 43.5335 45.6517C39.1806 43.376 35.7999 40.1052 33.9264 36.203C31.1462 30.6105 31.4561 23.9929 34.5452 18.8533C37.5631 13.5854 43.4496 10.0903 50.0001 9.44884ZM21.117 21.2855C19.6464 28.107 20.9243 35.4329 24.9537 41.1411C28.8737 47.1051 35.5472 50.9437 42.3577 51.9606C42.471 52.3749 42.6211 52.7793 42.8064 53.1694C38.568 55.6184 33.8915 56.7723 29.4091 56.3681C22.9299 55.8624 17.0985 52.3017 13.9698 47.1847C10.6905 42.0602 10.4488 35.4454 13.1498 29.7171C14.7711 26.3381 17.5938 23.4675 21.117 21.2855ZM70.5756 21.6688C76.8726 21.5254 83.0084 24.6228 86.8658 29.7171C89.126 32.749 90.3293 36.5305 90.5477 40.5367C85.081 35.9036 77.7839 33.2857 70.5756 33.756C63.1933 34.0135 56.3557 37.604 52.0267 42.7183C51.6007 42.6103 51.166 42.5363 50.7272 42.4972C50.6159 37.7675 51.8874 33.3236 54.5019 29.8203C58.193 24.7335 64.3578 21.6914 70.5756 21.6688ZM70.591 43.6322C77.0703 44.1379 82.9017 47.6986 86.0304 52.8156C89.3096 57.9401 89.5668 64.5548 86.8658 70.2832C85.2392 73.6591 82.4092 76.5327 78.8831 78.7148C80.3544 71.895 79.0749 64.5661 75.0465 58.8592C71.1265 52.8951 64.453 49.0565 57.6424 48.0396C57.5291 47.6253 57.379 47.221 57.1938 46.8309C61.4322 44.3818 66.1086 43.2279 70.591 43.6322ZM56.4667 54.3486C60.8201 56.6243 64.2103 59.8951 66.0892 63.7973C68.8694 69.3898 68.5361 76.0073 65.4549 81.1469C62.4371 86.4149 56.5585 89.9175 50.0001 90.5514C46.1195 90.8985 42.094 90.023 38.3509 88.2077C45.2875 86.0113 51.2933 81.2817 54.471 75.1033C57.9305 68.8831 58.0963 61.449 55.6158 55.3215C55.9275 55.0205 56.2121 54.695 56.4667 54.3486ZM47.9735 57.282C48.3994 57.39 48.8341 57.464 49.273 57.5031C49.3824 62.2348 48.1073 66.6819 45.4982 70.18C41.7992 75.2743 35.6345 78.3089 29.4246 78.3315C23.1275 78.4749 16.9918 75.3775 13.1344 70.2832C10.8742 67.2512 9.67081 63.4697 9.45242 59.4636C14.9194 64.096 22.212 66.7092 29.4246 66.2442C36.8068 65.9868 43.6444 62.3963 47.9735 57.282Z" fill="white"/>
</g>
<defs>
<clipPath id="clip0_638_47">
<rect width="100" height="100" fill="white"/>
</clipPath>
</defs>
</svg>
