<svg width="80" height="80" viewBox="0 0 80 80" fill="none" xmlns="http://www.w3.org/2000/svg">
<g clip-path="url(#clip0_645_289)">
<path d="M10 30C9.99984 25.046 11.2265 20.1692 13.5704 15.8048C15.9143 11.4404 19.3025 7.72446 23.4325 4.98865C27.5625 2.25285 32.3057 0.58237 37.2387 0.126385C42.1716 -0.3296 47.1406 0.4431 51.7021 2.37549C56.2636 4.30788 60.2756 7.3398 63.3798 11.2005C66.4841 15.0613 68.5839 19.6307 69.4918 24.5007C70.3998 29.3707 70.0876 34.3898 68.5831 39.1098C67.0786 43.8297 64.4287 48.1037 60.87 51.55C59.855 52.53 59.075 53.55 58.605 54.645L54.795 63.49C54.6017 63.9383 54.2813 64.3201 53.8735 64.5885C53.4657 64.8568 52.9882 64.9999 52.5 65C53.163 65 53.7989 65.2634 54.2678 65.7322C54.7366 66.201 55 66.8369 55 67.5C55 68.163 54.7366 68.7989 54.2678 69.2677C53.7989 69.7366 53.163 70 52.5 70C53.163 70 53.7989 70.2634 54.2678 70.7322C54.7366 71.201 55 71.8369 55 72.5C55 73.163 54.7366 73.7989 54.2678 74.2677C53.7989 74.7366 53.163 75 52.5 75L51.38 77.235C50.965 78.0654 50.3271 78.7639 49.5376 79.2522C48.7482 79.7406 47.8383 79.9995 46.91 80H33.09C32.1617 79.9995 31.2518 79.7406 30.4624 79.2522C29.6729 78.7639 29.035 78.0654 28.62 77.235L27.5 75C26.837 75 26.2011 74.7366 25.7322 74.2677C25.2634 73.7989 25 73.163 25 72.5C25 71.8369 25.2634 71.201 25.7322 70.7322C26.2011 70.2634 26.837 70 27.5 70C26.837 70 26.2011 69.7366 25.7322 69.2677C25.2634 68.7989 25 68.163 25 67.5C25 66.8369 25.2634 66.201 25.7322 65.7322C26.2011 65.2634 26.837 65 27.5 65C27.011 65.0008 26.5324 64.8582 26.1236 64.5898C25.7148 64.3214 25.3937 63.939 25.2 63.49L21.395 54.64C20.8462 53.4736 20.0771 52.4244 19.13 51.55C16.2372 48.7565 13.9376 45.4082 12.3689 41.7054C10.8001 38.0026 9.99443 34.0214 10 30ZM40 4.99997C35.0208 4.99913 30.1548 6.48513 26.0256 9.26753C21.8964 12.0499 18.692 16.002 16.8233 20.6172C14.9545 25.2324 14.5065 30.3005 15.5366 35.1719C16.5667 40.0434 19.028 44.4963 22.605 47.96C23.92 49.23 25.175 50.78 25.985 52.665L29.15 60H50.86L54.02 52.665C54.83 50.78 56.085 49.23 57.4 47.96C60.9773 44.496 63.4387 40.0426 64.4687 35.1707C65.4986 30.2988 65.0501 25.2303 63.1808 20.6149C61.3114 15.9995 58.1063 12.0475 53.9763 9.26543C49.8463 6.48341 44.9796 4.99813 40 4.99997Z" fill="white"/>
</g>
<defs>
<clipPath id="clip0_645_289">
<rect width="80" height="80" fill="white"/>
</clipPath>
</defs>
</svg>
