<svg width="80" height="80" viewBox="0 0 80 80" fill="none" xmlns="http://www.w3.org/2000/svg">
<path d="M0 20C0 17.3478 1.05357 14.8043 2.92893 12.9289C4.8043 11.0536 7.34784 10 10 10H70C72.6522 10 75.1957 11.0536 77.0711 12.9289C78.9464 14.8043 80 17.3478 80 20V60C80 62.6522 78.9464 65.1957 77.0711 67.0711C75.1957 68.9464 72.6522 70 70 70H10C7.34784 70 4.8043 68.9464 2.92893 67.0711C1.05357 65.1957 0 62.6522 0 60V20ZM10 15C8.67392 15 7.40215 15.5268 6.46447 16.4645C5.52678 17.4021 5 18.6739 5 20V21.085L40 42.085L75 21.085V20C75 18.6739 74.4732 17.4021 73.5355 16.4645C72.5979 15.5268 71.3261 15 70 15H10ZM75 26.915L51.46 41.04L75 55.525V26.915ZM74.83 61.295L46.63 43.94L40 47.915L33.37 43.94L5.17 61.29C5.45413 62.354 6.08158 63.2944 6.95495 63.9653C7.82831 64.6361 8.89873 64.9998 10 65H70C71.1006 65.0001 72.1705 64.6371 73.0438 63.9672C73.9171 63.2974 74.5449 62.3581 74.83 61.295ZM5 55.525L28.54 41.04L5 26.915V55.525Z" fill="white"/>
</svg>
